<svg xmlns="http://www.w3.org/2000/svg" xmlns:xlink="http://www.w3.org/1999/xlink" viewBox="0 0 183.08 185.95">
  <defs>
    <style>
      .a {
        fill: #2e53a1;
      }

      .b {
        fill: url(#a);
      }

      .c {
        fill: #fff;
      }

      .d {
        fill: #1e2d38;
      }
    </style>
    <linearGradient id="a" x1="29.23" y1="123.64" x2="153.85" y2="123.64" gradientUnits="userSpaceOnUse">
      <stop offset="0" stop-color="#58769a"/>
      <stop offset="0.08" stop-color="#387aae"/>
      <stop offset="0.4" stop-color="#3554a2"/>
      <stop offset="0.77" stop-color="#213b81"/>
      <stop offset="1"/>
    </linearGradient>
  </defs>
  <g>
    <path class="a" d="M118.85,27.13A27.14,27.14,0,1,0,86.71,53.79v26.5h10V53.79A27.17,27.17,0,0,0,118.85,27.13ZM91.71,44.26a17.13,17.13,0,1,1,17.14-17.13A17.15,17.15,0,0,1,91.71,44.26Z"/>
    <rect class="b" x="29.23" y="61.33" width="124.62" height="124.62" rx="12.49"/>
    <g>
      <path class="c" d="M53.84,153.26c0-7.29,1-11,1-17.57,0-3.65-3-7.41-14.12-7.59v-8.92c11.12-.18,14.12-4,14.12-7.59,0-6.42-1-10.4-1-17.58,0-11.12,6-14.66,19.2-14.66H81v8H76.75c-8.57,0-10.47,1.48-10.47,7.21,0,5.43.47,10.7.47,16.79,0,7.81-2.93,10.81-10.34,12v.41c7.41,1.24,10.34,4.24,10.34,12,0,6.26-.47,11.24-.47,16.78,0,5.73,1.9,7.22,10.47,7.22H81v8H73C59.8,167.93,53.84,164.39,53.84,153.26Z"/>
      <path class="c" d="M102.47,159.89h4.21c8.5,0,10.42-1.49,10.42-7.22,0-5.54-.39-10.52-.39-16.78,0-7.81,2.9-10.81,10.31-12v-.41c-7.41-1.23-10.31-4.23-10.31-12,0-6.09.39-11.36.39-16.79,0-5.73-1.92-7.21-10.42-7.21h-4.21v-8h7.92c13.27,0,19.17,3.54,19.17,14.66,0,7.18-1.08,11.16-1.08,17.58,0,3.64,3,7.41,14.2,7.59v8.92c-11.19.18-14.2,3.94-14.2,7.59,0,6.53,1.08,10.28,1.08,17.57,0,11.13-5.9,14.67-19.17,14.67h-7.92Z"/>
    </g>
    <rect class="d" y="86.71" width="20" height="77.69" rx="10"/>
    <rect class="d" x="163.08" y="86.71" width="20" height="77.69" rx="10"/>
  </g>
</svg>
